<?xml version="1.0" encoding="utf-8"?>
<!-- Generator: Adobe Illustrator 24.1.2, SVG Export Plug-In . SVG Version: 6.00 Build 0)  -->
<svg version="1.1" id="Layer_1" xmlns="http://www.w3.org/2000/svg" xmlns:xlink="http://www.w3.org/1999/xlink" x="0px" y="0px"
	 viewBox="0 0 18.66 18.44" style="enable-background:new 0 0 18.66 18.44;" xml:space="preserve">
<style type="text/css">
	.st0{fill:#CB2027;}
	.st1{fill:#FFFFFF;stroke:#FFFFFF;stroke-width:0.0251;stroke-miterlimit:10;}
	.st2{fill:#010101;}
</style>
<g>
	<path class="st0" d="M15.01,18.07L3.39,18.06c-1.71,0-3.1-1.4-3.1-3.11L0.29,3.3c0-1.71,1.4-3.1,3.11-3.1L15.02,0.2
		c1.71,0,3.1,1.4,3.1,3.11l-0.01,11.66C18.12,16.67,16.72,18.07,15.01,18.07z"/>
	<g>
		<path class="st1" d="M5.19,11.16C3.73,9.45,3.98,8.29,4.52,7.58C5.07,6.88,5.9,7.24,6.98,8.27c0.79,0.75,1.79,0.53,2.03-0.12
			c0.18-0.46-0.65-0.03-2.05-1.18C6.14,6.28,6.73,6.83,4.64,4.38c-1.29-1.5-2.18-0.68-2.18-0.68S1.49,4.43,1.97,5.09
			c1.35,1.83,0.05,3.92,1.63,6.64c1.58,2.71,5.33,3.28,5.49,3.04C9.42,14.28,7.25,13.58,5.19,11.16z"/>
		<path class="st1" d="M15.95,3.68c0,0-0.89-0.83-2.18,0.67c-2.1,2.44-1.5,1.89-2.33,2.58c-1.4,1.16-2.23,0.72-2.05,1.18
			c0.25,0.65,1.24,0.87,2.03,0.12c1.08-1.02,1.91-1.39,2.46-0.68c0.54,0.71,0.64,1.66-0.67,3.58c-1.11,1.62-4.23,3.11-3.9,3.6
			c0.16,0.24,3.91-0.32,5.5-3.03c1.58-2.71,0.28-4.8,1.64-6.63C16.92,4.4,15.95,3.68,15.95,3.68z"/>
	</g>
	<path class="st2" d="M9.2,9.13"/>
	<path class="st2" d="M9.2,9.13"/>
</g>
</svg>
